<svg width="32" height="32" viewBox="0 0 32 32" fill="none" xmlns="http://www.w3.org/2000/svg">
  <!-- DNA Helix representation -->
  <rect width="32" height="32" rx="6" fill="#3B82F6"/>
  
  <!-- DNA strands -->
  <path d="M8 6 Q16 4 24 6 Q16 8 8 12 Q16 14 24 16 Q16 18 8 22 Q16 24 24 26" 
        stroke="white" stroke-width="1.5" fill="none" opacity="0.9"/>
  <path d="M8 8 Q16 6 24 8 Q16 10 8 14 Q16 16 24 18 Q16 20 8 24 Q16 26 24 28" 
        stroke="white" stroke-width="1.5" fill="none" opacity="0.7"/>
  
  <!-- Connecting bonds -->
  <circle cx="12" cy="6" r="1" fill="white" opacity="0.8"/>
  <circle cx="20" cy="6" r="1" fill="white" opacity="0.8"/>
  <line x1="12" y1="6" x2="20" y2="6" stroke="white" stroke-width="0.5" opacity="0.6"/>
  
  <circle cx="8" cy="12" r="1" fill="white" opacity="0.8"/>
  <circle cx="24" cy="12" r="1" fill="white" opacity="0.8"/>
  <line x1="8" y1="12" x2="24" y2="12" stroke="white" stroke-width="0.5" opacity="0.6"/>
  
  <circle cx="12" cy="18" r="1" fill="white" opacity="0.8"/>
  <circle cx="20" cy="18" r="1" fill="white" opacity="0.8"/>
  <line x1="12" y1="18" x2="20" y2="18" stroke="white" stroke-width="0.5" opacity="0.6"/>
  
  <circle cx="8" cy="24" r="1" fill="white" opacity="0.8"/>
  <circle cx="24" cy="24" r="1" fill="white" opacity="0.8"/>
  <line x1="8" y1="24" x2="24" y2="24" stroke="white" stroke-width="0.5" opacity="0.6"/>
</svg>